<svg width="28" height="24" viewBox="0 0 28 24" fill="none" xmlns="http://www.w3.org/2000/svg">
<path d="M27.2131 23.1849C26.763 23.643 26.1249 23.9227 25.485 23.9981H2.51501C1.2017 23.8675 0.130215 22.8132 0 21.5106V6.1674C0.122774 4.85738 1.26309 3.76998 2.5857 3.67982C3.71486 3.60439 4.92586 3.74606 6.06245 3.6743C10.0433 -1.22542 17.9567 -1.22542 21.9394 3.6743C23.0816 3.75342 24.3168 3.59335 25.4496 3.68166C26.7667 3.7847 27.8754 4.86658 28.0019 6.1674V21.5124C27.9572 22.1012 27.628 22.7654 27.215 23.1867L27.2131 23.1849ZM20.0011 4.32012C17.7986 2.09565 14.4967 1.29344 11.4757 2.21156C9.65081 2.76538 8.08079 3.97973 7.01116 5.52711H2.76242C2.28435 5.57679 1.90858 5.88774 1.86394 6.37716V21.2695C1.8844 21.7461 2.27505 22.1453 2.76056 22.1564H25.2729C25.7324 22.1251 26.1044 21.7589 26.1342 21.3045L26.1175 6.25572C26.0207 5.83806 25.6877 5.58231 25.2673 5.53079L20.9888 5.52711C20.6875 5.10761 20.3657 4.6881 20.0029 4.32196L20.0011 4.32012Z" fill="white"/>
<path d="M21.1749 10.8132L19.3463 11.3358C18.9314 9.7571 17.6553 8.43051 16.1448 7.80494C13.5814 6.74698 10.6665 7.7295 9.21738 10.0312L9.26946 10.0828L10.8004 9.31736L11.5947 10.988L6.36938 13.632C6.42333 13.0745 6.49216 12.5059 6.58517 11.9503C6.97582 9.6467 8.16822 7.73134 10.2256 6.54091C14.4427 4.10117 19.7667 6.26676 21.1749 10.8132Z" fill="white"/>
<path d="M21.6678 12.2393C21.5134 12.9384 21.4781 13.6615 21.3349 14.3625C20.4029 18.9255 15.4677 21.5548 11.0925 19.7259C9.05743 18.8759 7.47438 17.1298 6.82703 15.0396L8.65562 14.5005C8.6519 14.5686 8.66678 14.6312 8.6891 14.6937C10.0247 18.4692 14.7869 19.7167 17.8005 16.9881C18.0497 16.7618 18.6989 16.0553 18.8199 15.7701C18.8292 15.7498 18.8254 15.7112 18.8031 15.7186L17.2033 16.5189L16.409 14.8483L21.6697 12.2393H21.6678Z" fill="white"/>
</svg>
