<svg width="302" height="102" viewBox="0 0 302 102" fill="none" xmlns="http://www.w3.org/2000/svg">
<path d="M65.5087 101.406H19.4165L0.794739 0H46.887L65.5087 101.406Z" fill="white"/>
<path d="M74.8215 50.705L65.5087 101.406H111.601L120.914 50.705H74.8215Z" fill="white"/>
<path d="M129.243 96.0435C129.979 96.0435 130.571 95.8986 131.017 95.6085C131.485 95.2963 131.842 94.8164 132.088 94.1695C132.333 93.5227 132.489 92.6971 132.556 91.6932C132.645 90.6669 132.69 89.4402 132.69 88.0122V78.4417H154.274V101.532H148.05V83.4947H138.513V88.0122C138.513 90.511 138.39 92.6192 138.144 94.3369C137.921 96.0545 137.498 97.449 136.873 98.5198C136.27 99.5906 135.434 100.36 134.363 100.829C133.292 101.297 131.92 101.532 130.247 101.532H128.44V96.0435H129.243ZM179.75 78.4417V83.227H164.926V87.4434H176.203V92.0279H164.926V96.7462H179.85V101.532H158.701V78.4417H179.75ZM181.527 83.4947V78.4417H206.458V83.4947H197.088V101.532H190.864V83.4947H181.527ZM229.579 88.715C229.579 86.5064 228.899 84.9671 227.538 84.097C226.2 83.227 224.192 82.7919 221.515 82.7919C218.838 82.7919 216.819 83.227 215.458 84.097C214.097 84.9671 213.417 86.5064 213.417 88.715V91.1578C213.417 92.318 213.584 93.2885 213.918 94.0692C214.276 94.8278 214.789 95.4412 215.458 95.9096C216.127 96.3781 216.964 96.7128 217.968 96.9136C218.994 97.0919 220.176 97.1813 221.515 97.1813C222.853 97.1813 224.024 97.0919 225.028 96.9136C226.032 96.7128 226.869 96.3892 227.538 95.9431C228.23 95.4746 228.743 94.8613 229.077 94.1026C229.412 93.3219 229.579 92.3401 229.579 91.1578V88.715ZM207.125 89.8527C207.125 87.6217 207.438 85.7477 208.062 84.2309C208.687 82.6915 209.613 81.4644 210.84 80.5499C212.067 79.6353 213.573 78.9771 215.357 78.5755C217.142 78.174 219.195 77.9732 221.515 77.9732C223.835 77.9732 225.887 78.174 227.672 78.5755C229.457 78.9771 230.962 79.6353 232.19 80.5499C233.417 81.4644 234.342 82.6915 234.967 84.2309C235.592 85.7477 235.904 87.6217 235.904 89.8527C235.904 92.1507 235.592 94.0802 234.967 95.6419C234.342 97.1813 233.417 98.4305 232.19 99.3899C230.962 100.327 229.457 100.996 227.672 101.398C225.887 101.799 223.835 102 221.515 102C219.195 102 217.142 101.799 215.357 101.398C213.573 100.996 212.067 100.327 210.84 99.3899C209.613 98.4305 208.687 97.1813 208.062 95.6419C207.438 94.0802 207.125 92.1507 207.125 89.8527Z" fill="white"/>
<path d="M135.915 55.934V73.7229H130.242V50.6939H140.022L145.73 67.882L151.468 50.6939H160.914V73.7229H154.708V55.8656L148.7 73.7229H141.924L135.915 55.934Z" fill="white"/>
<path d="M162.504 55.7325V50.6939H187.369V55.7325H178.026V73.7229H171.816V55.7325H162.504Z" fill="white"/>
<path d="M200.603 50.2258C208.254 50.2258 212.859 52.4275 213.486 58.6715H207.257C206.729 55.7359 204.474 55.0324 200.599 55.0324C196.458 55.0324 193.541 56.1009 193.541 60.9075V63.5428C193.541 68.2163 196.359 69.3837 200.629 69.3837C204.307 69.3837 206.626 68.7144 207.288 65.9803H213.517C212.786 71.9201 208.216 74.1903 200.599 74.1903C192.252 74.1903 187.316 71.285 187.316 62.2422C187.316 53.1995 192.252 50.2258 200.599 50.2258" fill="white"/>
<path d="M135.869 55.9359V73.772H130.18V50.6821H139.985L145.707 67.9159L151.463 50.6821H160.933V73.772H154.709V55.869L148.686 73.772H141.892L135.869 55.9359ZM162.558 55.7351V50.6821H187.488V55.7351H178.118V73.772H171.894V55.7351H162.558ZM187.152 62.2605C187.152 60.0295 187.453 58.1445 188.055 56.6052C188.658 55.0658 189.539 53.8277 190.699 52.8907C191.859 51.9313 193.265 51.251 194.915 50.8494C196.566 50.4254 198.452 50.2136 200.571 50.2136C202.512 50.2136 204.241 50.3585 205.758 50.6486C207.297 50.9388 208.613 51.4183 209.706 52.0876C210.822 52.7569 211.703 53.6379 212.35 54.7312C213.019 55.802 213.432 57.1181 213.588 58.6799H207.297C207.163 57.9437 206.918 57.3414 206.561 56.8729C206.226 56.4044 205.769 56.0363 205.189 55.7686C204.631 55.4784 203.962 55.2891 203.181 55.1997C202.422 55.0883 201.552 55.0324 200.571 55.0324C199.522 55.0324 198.563 55.1217 197.693 55.3001C196.823 55.4564 196.064 55.7575 195.417 56.2036C194.793 56.6276 194.302 57.2185 193.945 57.9772C193.61 58.7358 193.443 59.7173 193.443 60.922V63.5656C193.443 64.7478 193.61 65.7183 193.945 66.4769C194.302 67.2131 194.793 67.8044 195.417 68.2505C196.042 68.6965 196.789 69.0091 197.659 69.1875C198.552 69.3438 199.533 69.4217 200.604 69.4217C201.541 69.4217 202.378 69.3772 203.114 69.2879C203.873 69.1764 204.531 68.9977 205.088 68.7524C205.668 68.4847 206.137 68.1391 206.494 67.7151C206.873 67.269 207.152 66.7001 207.33 66.0084H213.622C213.443 67.5033 213.019 68.7749 212.35 69.8233C211.681 70.8496 210.788 71.6972 209.673 72.3665C208.58 73.0133 207.264 73.4818 205.724 73.772C204.207 74.0842 202.489 74.2405 200.571 74.2405C198.452 74.2405 196.566 74.0397 194.915 73.6381C193.265 73.2366 191.859 72.5783 190.699 71.6638C189.539 70.7268 188.658 69.4997 188.055 67.9828C187.453 66.4435 187.152 64.536 187.152 62.2605ZM228.336 50.6821V68.719H241.755V73.772H222.112V50.6821H228.336ZM249.645 50.6821V73.772H243.421V50.6821H249.645ZM278.93 50.6821L269.058 73.772H260.625L250.82 50.6821H257.479L265.243 69.2209L273.107 50.6821H278.93ZM301.105 50.6821V55.4674H286.281V59.6838H297.558V64.2683H286.281V68.9867H301.205V73.772H280.056V50.6821H301.105Z" fill="white"/>
</svg>
